<svg width="512" height="512" viewBox="0 0 512 512" fill="none" xmlns="http://www.w3.org/2000/svg">
<path d="M34.133 221.867C15.36 221.867 0 237.227 0 256C0 274.773 15.36 290.133 34.133 290.133C52.906 290.133 68.266 274.773 68.266 256C68.267 237.227 52.907 221.867 34.133 221.867ZM34.133 273.067C24.746 273.067 17.066 265.387 17.066 256C17.066 246.613 24.746 238.933 34.133 238.933C43.52 238.933 51.2 246.613 51.2 256C51.2 265.387 43.52 273.067 34.133 273.067Z" fill="#4EFCE2"/>
<path d="M477.867 221.867C459.094 221.867 443.734 237.227 443.734 256C443.734 274.773 459.094 290.133 477.867 290.133C496.64 290.133 512 274.773 512 256C512 237.227 496.64 221.867 477.867 221.867ZM477.867 273.067C468.48 273.067 460.8 265.387 460.8 256C460.8 246.613 468.48 238.933 477.867 238.933C487.254 238.933 494.934 246.613 494.934 256C494.934 265.387 487.253 273.067 477.867 273.067Z" fill="#4EFCE2"/>
<path d="M256 68.267C274.773 68.267 290.133 52.907 290.133 34.134C290.133 15.36 274.773 0 256 0C237.227 0 221.867 15.36 221.867 34.133C221.867 52.907 237.227 68.267 256 68.267ZM256 17.067C265.387 17.067 273.067 24.747 273.067 34.134C273.067 43.521 265.387 51.201 256 51.201C246.613 51.201 238.933 43.521 238.933 34.134C238.933 24.747 246.613 17.067 256 17.067Z" fill="#4EFCE2"/>
<path d="M256 443.733C237.227 443.733 221.867 459.093 221.867 477.866C221.867 496.64 237.227 512 256 512C274.773 512 290.133 496.64 290.133 477.867C290.133 459.093 274.773 443.733 256 443.733ZM256 494.933C246.613 494.933 238.933 487.253 238.933 477.866C238.933 468.479 246.613 460.8 256 460.8C265.387 460.8 273.067 468.48 273.067 477.867C273.067 487.254 265.387 494.933 256 494.933Z" fill="#4EFCE2"/>
<path d="M75.093 389.12C68.266 395.093 64.853 404.48 64.853 413.013C64.853 421.546 68.266 430.08 75.093 436.906C81.066 443.733 89.6 447.146 98.986 447.146C108.373 447.146 116.906 443.733 123.733 437.759C137.386 424.106 137.386 402.772 123.733 389.119C110.08 375.466 88.747 375.467 75.093 389.12ZM110.933 424.96C104.106 431.787 93.866 431.787 87.04 424.96C83.627 421.547 81.92 417.28 81.92 413.013C81.92 408.746 83.627 404.48 87.04 401.066C90.453 397.652 94.72 395.946 98.987 395.946C103.254 395.946 107.52 397.653 110.934 401.066C117.76 407.893 117.76 418.133 110.933 424.96Z" fill="#4EFCE2"/>
<path d="M413.013 133.12C422.4 133.12 430.933 129.707 437.76 122.88C451.413 109.227 451.413 87.8927 437.76 74.2397C424.107 60.5868 402.773 60.5868 389.12 74.2397C375.467 87.8927 375.467 109.227 389.12 122.88C395.093 129.707 403.627 133.12 413.013 133.12ZM401.067 87.0398C404.48 83.6268 408.747 81.9198 413.014 81.9198C417.281 81.9198 421.547 83.6268 424.961 87.0398C431.788 93.8668 431.788 104.107 424.961 110.933C418.988 117.76 407.894 117.76 401.068 110.933C394.242 104.106 394.24 93.8668 401.067 87.0398Z" fill="#4EFCE2"/>
<path d="M98.987 133.12C108.374 133.12 116.907 129.707 123.734 123.733C137.387 110.08 137.387 88.7458 123.734 75.0928C110.081 61.4398 88.747 61.4398 75.094 75.0928C68.267 81.0658 64.854 89.5998 64.854 98.9858C64.854 107.519 68.267 116.053 75.094 122.879C81.067 129.707 89.6 133.12 98.987 133.12ZM87.04 87.0398C90.453 83.6268 94.72 81.9198 98.987 81.9198C103.254 81.9198 107.52 83.6268 110.934 87.0398C117.761 93.8668 117.761 104.107 110.934 110.933C104.961 117.76 93.867 117.76 87.041 110.933C83.628 107.52 81.921 103.253 81.921 98.9858C81.921 94.7188 83.627 90.4528 87.04 87.0398Z" fill="#4EFCE2"/>
<path d="M389.12 388.267C375.467 401.92 375.467 423.254 389.12 436.907C395.947 443.734 404.48 447.147 413.013 447.147C421.546 447.147 430.08 443.734 437.76 436.907C451.413 423.254 451.413 401.92 437.76 388.267C424.107 374.613 402.773 374.613 389.12 388.267ZM424.96 424.96C418.133 431.787 407.893 431.787 401.067 424.96C394.241 418.133 394.24 407.893 401.067 401.067C404.48 397.654 408.747 395.947 413.014 395.947C417.281 395.947 421.547 397.654 424.961 401.067C431.787 407.893 431.787 418.133 424.96 424.96Z" fill="#4EFCE2"/>
<path d="M256 85.333C162.133 85.333 85.333 162.133 85.333 256C85.333 349.867 162.133 426.667 256 426.667C349.867 426.667 426.667 349.867 426.667 256C426.667 162.133 349.867 85.333 256 85.333ZM256 409.6C171.52 409.6 102.4 340.48 102.4 256C102.4 171.52 171.52 102.4 256 102.4C340.48 102.4 409.6 171.52 409.6 256C409.6 340.48 340.48 409.6 256 409.6Z" fill="#4EFCE2"/>
</svg>
