<svg width="89" height="89" viewBox="0 0 89 89" fill="none" xmlns="http://www.w3.org/2000/svg">
<path d="M49.8401 14.24C47.5501 14.24 45.6868 16.1034 45.6868 18.3933V62.5445C45.6868 62.6498 45.7007 62.7548 45.7286 62.8563L48.716 73.8834C48.8564 74.4008 49.3257 74.76 49.8609 74.76H49.8632C50.3999 74.7588 50.8692 74.3978 51.0069 73.8798L53.954 62.8491C53.9795 62.7495 53.9934 62.6474 53.9934 62.5445V18.3933C53.9934 16.1034 52.1301 14.24 49.8401 14.24ZM48.0601 61.7067V33.2267H51.6201V61.7067H48.0601ZM48.0601 29.6667H51.6201V30.8533H48.0601V29.6667ZM49.8401 16.6133C50.8218 16.6133 51.6201 17.4117 51.6201 18.3933V27.2933H48.0601V18.3933C48.0601 17.4117 48.8584 16.6133 49.8401 16.6133ZM49.8529 69.0053L48.519 64.08H51.1686L49.8529 69.0053Z" fill="#4EFCE2"/>
<path d="M41.0082 41.3954L38.3207 41.2408C38.0508 40.1446 37.6381 39.1033 37.0902 38.13L38.8423 36.1616C39.2594 35.6923 39.2398 34.9779 38.7948 34.5335L36.0809 31.8184C35.6383 31.3746 34.9221 31.3538 34.454 31.7703L32.5209 33.4883C31.5324 32.9072 30.4754 32.4696 29.362 32.1818L29.2101 29.5975C29.1742 28.9695 28.6538 28.48 28.0258 28.48H24.1875C23.5595 28.48 23.0391 28.9701 23.0032 29.5972L22.849 32.2266C21.7688 32.5268 20.7388 32.9724 19.7699 33.558L17.7594 31.77C17.2924 31.3535 16.5763 31.3743 16.1324 31.8181L13.4185 34.5332C12.9735 34.9776 12.954 35.692 13.3711 36.1613L15.2436 38.2647C14.7313 39.1986 14.3432 40.19 14.086 41.2278L11.2039 41.3951C10.5768 41.4325 10.0867 41.9516 10.0867 42.5803V46.4194C10.0867 47.0481 10.5768 47.5672 11.2039 47.6043L14.2029 47.7788C14.488 48.7539 14.8879 49.6845 15.4012 50.5612L13.372 52.8378C12.9537 53.3071 12.9732 54.0215 13.4182 54.4665L16.1321 57.1816C16.576 57.6272 17.2909 57.6468 17.7602 57.2291L20.0769 55.1669C20.9473 55.6576 21.8649 56.0394 22.8235 56.3079L23.0029 59.4022C23.0388 60.0296 23.5592 60.52 24.1872 60.52H28.0255C28.6547 60.52 29.1739 60.0299 29.2098 59.4016L29.3872 56.3527C30.371 56.0943 31.3132 55.7182 32.2055 55.2287L34.4525 57.2294C34.923 57.6471 35.638 57.6275 36.0806 57.1819L38.7945 54.4668C39.2395 54.0218 39.2591 53.3074 38.8408 52.8381L36.9217 50.6855C37.2495 50.1402 37.5346 49.573 37.7734 48.99H37.7746C37.938 48.5901 38.0804 48.181 38.2021 47.7663L41.0076 47.604C41.6357 47.5675 42.1261 47.0478 42.1261 46.4191V42.5806C42.1267 41.9516 41.6366 41.4319 41.0082 41.3954V41.3954ZM39.7533 45.2989L37.197 45.4467C36.6627 45.4778 36.2153 45.862 36.104 46.3847C35.9812 46.9653 35.8038 47.539 35.578 48.0894C35.2882 48.7969 34.9141 49.4772 34.4644 50.112C34.1457 50.5633 34.1793 51.1747 34.5477 51.5874L36.3242 53.5813L35.1942 54.7119L33.1338 52.8773C32.7327 52.5216 32.1489 52.478 31.6991 52.7678C30.5807 53.4926 29.3501 53.9818 28.0395 54.2227C27.5019 54.3211 27.1008 54.7747 27.0694 55.3212L26.9062 58.1467H25.3069L25.141 55.2918C25.1099 54.7537 24.7192 54.3039 24.1908 54.1974C22.908 53.939 21.7015 53.4377 20.6029 52.7079C20.1532 52.4094 19.5598 52.4507 19.1567 52.8093L17.0186 54.7122L15.8886 53.5816L17.7683 51.472C18.1332 51.0635 18.1702 50.4585 17.8599 50.0082C17.1031 48.9126 16.5783 47.6975 16.3001 46.3966C16.1888 45.8745 15.7426 45.4915 15.2095 45.4603L12.46 45.3001V43.6996L15.13 43.5444C15.6815 43.5121 16.1381 43.1036 16.2309 42.5583C16.4614 41.1966 16.9575 39.9224 17.7039 38.7705C17.9946 38.3219 17.9495 37.7351 17.595 37.3358L15.888 35.419L17.0189 34.2875L18.873 35.9355C19.2857 36.3028 19.8974 36.3354 20.3484 36.0156C21.5247 35.1802 22.8249 34.6162 24.2142 34.3401C24.7438 34.2347 25.1354 33.7844 25.1668 33.2457L25.3072 30.8533H26.9065L27.0456 33.2163C27.0768 33.7633 27.479 34.2169 28.0178 34.3142C29.4489 34.5732 30.7759 35.1227 31.9626 35.9459C32.4144 36.2571 33.0172 36.2218 33.4275 35.8578L35.1948 34.2875L36.3256 35.419L34.7311 37.2094C34.3718 37.6126 34.3312 38.2077 34.6302 38.6574C35.4149 39.8331 35.9349 41.15 36.1749 42.5708C36.2675 43.116 36.7244 43.5257 37.2771 43.5575L39.7536 43.6999V45.2989H39.7533Z" fill="#4EFCE2"/>
<path d="M26.2018 38.9594C23.2734 38.9594 20.8909 41.3414 20.8909 44.2698C20.8909 47.1982 23.2734 49.5807 26.2018 49.5807C29.1302 49.5807 31.5127 47.1982 31.5127 44.2698C31.5127 41.3414 29.1302 38.9594 26.2018 38.9594V38.9594ZM26.2018 47.2077C24.5817 47.2077 23.2642 45.8902 23.2642 44.2701C23.2642 42.6506 24.5817 41.3331 26.2018 41.3331C27.8219 41.3331 29.1394 42.6506 29.1394 44.2701C29.1397 45.8902 27.8219 47.2077 26.2018 47.2077Z" fill="#4EFCE2"/>
<path d="M77.7267 10.68H63.4867C62.8308 10.68 62.3 11.2113 62.3 11.8667V77.1333C62.3 77.7887 62.8308 78.32 63.4867 78.32H77.7267C78.3826 78.32 78.9134 77.7887 78.9134 77.1333V11.8667C78.9134 11.2113 78.3826 10.68 77.7267 10.68ZM76.54 75.9467H64.6734V71.2H68.2334C68.8893 71.2 69.42 70.6687 69.42 70.0133C69.42 69.358 68.8893 68.8267 68.2334 68.8267H64.6734V66.4533H67.0467C67.7026 66.4533 68.2334 65.922 68.2334 65.2667C68.2334 64.6113 67.7026 64.08 67.0467 64.08H64.6734V61.7067H68.2334C68.8893 61.7067 69.42 61.1753 69.42 60.52C69.42 59.8647 68.8893 59.3333 68.2334 59.3333H64.6734V56.96H67.0467C67.7026 56.96 68.2334 56.4287 68.2334 55.7733C68.2334 55.118 67.7026 54.5867 67.0467 54.5867H64.6734V52.2133H68.2334C68.8893 52.2133 69.42 51.682 69.42 51.0267C69.42 50.3713 68.8893 49.84 68.2334 49.84H64.6734V47.4667H67.0467C67.7026 47.4667 68.2334 46.9353 68.2334 46.28C68.2334 45.6247 67.7026 45.0933 67.0467 45.0933H64.6734V42.72H68.2334C68.8893 42.72 69.42 42.1887 69.42 41.5333C69.42 40.878 68.8893 40.3467 68.2334 40.3467H64.6734V37.9733H67.0467C67.7026 37.9733 68.2334 37.442 68.2334 36.7867C68.2334 36.1313 67.7026 35.6 67.0467 35.6H64.6734V33.2267H68.2334C68.8893 33.2267 69.42 32.6953 69.42 32.04C69.42 31.3847 68.8893 30.8533 68.2334 30.8533H64.6734V28.48H67.0467C67.7026 28.48 68.2334 27.9487 68.2334 27.2933C68.2334 26.638 67.7026 26.1067 67.0467 26.1067H64.6734V23.7333H68.2334C68.8893 23.7333 69.42 23.202 69.42 22.5467C69.42 21.8913 68.8893 21.36 68.2334 21.36H64.6734V18.9867H67.0467C67.7026 18.9867 68.2334 18.4553 68.2334 17.8C68.2334 17.1447 67.7026 16.6133 67.0467 16.6133H64.6734V13.0533H76.54V75.9467Z" fill="#4EFCE2"/>
<path d="M73.5733 17.3636C74.3153 17.3636 74.9169 16.762 74.9169 16.02C74.9169 15.2777 74.3153 14.6761 73.5733 14.6761C72.8314 14.6761 72.2297 15.2777 72.2297 16.02C72.2297 16.762 72.8314 17.3636 73.5733 17.3636V17.3636Z" fill="#4EFCE2"/>
<path d="M33.6764 23.8769C33.9081 24.1086 34.2119 24.2246 34.5154 24.2246C34.8188 24.2246 35.1226 24.1086 35.3543 23.8769L36.1933 23.0379L37.0323 23.8769C37.264 24.1086 37.5678 24.2246 37.8712 24.2246C38.1747 24.2246 38.4785 24.1086 38.7102 23.8769C39.1736 23.4135 39.1736 22.6624 38.7102 22.199L37.8712 21.36L38.7102 20.521C39.1736 20.0576 39.1736 19.3065 38.7102 18.8431C38.2468 18.3797 37.4957 18.3797 37.0323 18.8431L36.1933 19.682L35.3543 18.8431C34.8909 18.3797 34.1398 18.3797 33.6764 18.8431C33.213 19.3065 33.213 20.0576 33.6764 20.521L34.5154 21.36L33.6764 22.199C33.2127 22.6627 33.2127 23.4135 33.6764 23.8769V23.8769Z" fill="#4EFCE2"/>
<path d="M24.92 14.9903C25.662 14.9903 26.2636 14.3886 26.2636 13.6466C26.2636 12.9044 25.662 12.3027 24.92 12.3027C24.1781 12.3027 23.5764 12.9044 23.5764 13.6466C23.5764 14.3886 24.1781 14.9903 24.92 14.9903V14.9903Z" fill="#4EFCE2"/>
<path d="M32.6335 64.08C30.6704 64.08 29.0735 65.677 29.0735 67.64C29.0735 69.603 30.6704 71.2 32.6335 71.2C34.5965 71.2 36.1935 69.603 36.1935 67.64C36.1935 65.677 34.5965 64.08 32.6335 64.08ZM32.6335 68.8267C31.9787 68.8267 31.4468 68.2941 31.4468 67.64C31.4468 66.9858 31.9787 66.4533 32.6335 66.4533C33.2882 66.4533 33.8202 66.9858 33.8202 67.64C33.8202 68.2941 33.2882 68.8267 32.6335 68.8267Z" fill="#4EFCE2"/>
</svg>
