<svg width="69" height="69" viewBox="0 0 69 69" fill="none" xmlns="http://www.w3.org/2000/svg">
<path d="M17.8176 39.5649L20.2576 45.9719C20.5358 46.7027 21.3118 47.114 22.0728 46.9364L24.7381 46.3112V58.6868C24.7381 59.5489 25.437 60.2479 26.2991 60.2479H42.4776C43.3398 60.2479 44.0387 59.5489 44.0387 58.6868V46.3112L46.7039 46.9364C47.4656 47.1148 48.241 46.7028 48.5192 45.9719L50.9592 39.5649C51.2487 38.8045 50.9056 37.9491 50.1708 37.5997L39.8622 32.6965C39.123 32.3451 38.2383 32.6239 37.8343 33.3351C37.8246 33.3521 36.8031 35.0317 34.3882 35.0317C32.0656 35.0317 31.0331 33.4787 30.9378 33.3267C30.5434 32.5964 29.6656 32.3393 28.9143 32.6965L18.6056 37.5997C17.871 37.9492 17.528 38.8045 17.8176 39.5649ZM29.1553 36.0392C30.0987 36.9823 31.7932 38.1539 34.3884 38.1539C36.9835 38.1539 38.6781 36.9823 39.6215 36.0392L47.5287 39.8004L46.0873 43.5847L42.834 42.8217C42.3699 42.7132 41.8816 42.8221 41.5079 43.1181C41.1343 43.4141 40.9164 43.8648 40.9164 44.3416V57.1258H27.8601V44.3416C27.8601 43.8648 27.6421 43.4143 27.2686 43.1181C26.895 42.822 26.4069 42.713 25.9424 42.8217L22.6891 43.5847L21.2478 39.8004L29.1553 36.0392Z" fill="#FF6D6D"/>
<path d="M65.1825 0H3.81743C2.95525 0 2.25635 0.699054 2.25635 1.56109V19.2409C2.25635 20.1029 2.95525 20.8019 3.81743 20.8019H5.36338V23.7931H5.25957C4.39738 23.7931 3.69848 24.4922 3.69848 25.3542V61.0694C3.69848 65.4424 7.25619 69 11.6291 69H57.1479C61.5208 69 65.0785 65.4424 65.0785 61.0694V25.3542C65.0785 24.5323 64.4428 23.8601 63.6364 23.7992V20.8019H65.1823C66.0445 20.8019 66.7434 20.1029 66.7434 19.2409V1.56109C66.7436 0.699054 66.0447 0 65.1825 0ZM63.6214 17.6798H54.4705V15.4423C54.4705 14.5802 53.7716 13.8812 52.9094 13.8812C52.0472 13.8812 51.3483 14.5802 51.3483 15.4423V17.6798H42.1975V3.12217H51.3483V9.19792C51.3483 10.06 52.0472 10.759 52.9094 10.759C53.7716 10.759 54.4705 10.06 54.4705 9.19792V3.12217H63.6214V17.6798V17.6798ZM29.9246 17.6798V3.12217H39.0753V17.6798H29.9246ZM17.6516 17.6798V3.12217H26.8024V17.6798H17.6516ZM5.37852 3.12217H14.5295V17.6798H5.37852V3.12217ZM60.5144 23.7931H20.3136C19.4514 23.7931 18.7525 24.4922 18.7525 25.3542C18.7525 26.2163 19.4514 26.9153 20.3136 26.9153H61.9563V61.0694C61.9563 63.7207 59.7994 65.8778 57.1479 65.8778H11.6291C8.97776 65.8778 6.82065 63.7209 6.82065 61.0694V26.9153H14.0691C14.9313 26.9153 15.6302 26.2163 15.6302 25.3542C15.6302 24.4922 14.9313 23.7931 14.0691 23.7931H8.48555V20.8019H60.5142V23.7931H60.5144Z" fill="#FF6D6D"/>
</svg>
