<svg width="26" height="26" viewBox="0 0 26 26" fill="none" xmlns="http://www.w3.org/2000/svg">
<path d="M15.4883 13C15.4883 14.3743 14.3743 15.4883 13 15.4883C11.6257 15.4883 10.5117 14.3743 10.5117 13C10.5117 11.6257 11.6257 10.5117 13 10.5117C14.3743 10.5117 15.4883 11.6257 15.4883 13Z" fill="black"/>
<path d="M18.8193 8.5975C18.6997 8.27338 18.5088 7.98 18.2609 7.73918C18.0201 7.49123 17.7269 7.3004 17.4026 7.18079C17.1395 7.07863 16.7444 6.95703 16.0166 6.9239C15.2293 6.888 14.9932 6.88026 13.0001 6.88026C11.0067 6.88026 10.7706 6.8878 9.98354 6.92371C9.25574 6.95703 8.8604 7.07863 8.59756 7.18079C8.27324 7.3004 7.97986 7.49123 7.73924 7.73918C7.49129 7.98 7.30046 8.27318 7.18065 8.5975C7.07849 8.86053 6.95689 9.25587 6.92377 9.98367C6.88786 10.7708 6.88013 11.0068 6.88013 13.0002C6.88013 14.9934 6.88786 15.2294 6.92377 16.0167C6.95689 16.7445 7.07849 17.1397 7.18065 17.4027C7.30046 17.727 7.49109 18.0202 7.73904 18.261C7.97986 18.509 8.27304 18.6998 8.59737 18.8194C8.8604 18.9218 9.25574 19.0434 9.98354 19.0765C10.7706 19.1124 11.0065 19.1199 12.9999 19.1199C14.9934 19.1199 15.2295 19.1124 16.0164 19.0765C16.7442 19.0434 17.1395 18.9218 17.4026 18.8194C18.0536 18.5683 18.5681 18.0537 18.8193 17.4027C18.9214 17.1397 19.043 16.7445 19.0764 16.0167C19.1123 15.2294 19.1198 14.9934 19.1198 13.0002C19.1198 11.0068 19.1123 10.7708 19.0764 9.98367C19.0432 9.25587 18.9216 8.86053 18.8193 8.5975V8.5975ZM13.0001 16.8332C10.8829 16.8332 9.16667 15.1171 9.16667 13C9.16667 10.8829 10.8829 9.16681 13.0001 9.16681C15.117 9.16681 16.8333 10.8829 16.8333 13C16.8333 15.1171 15.117 16.8332 13.0001 16.8332ZM16.9848 9.91107C16.4901 9.91107 16.089 9.50998 16.089 9.01526C16.089 8.52054 16.4901 8.11945 16.9848 8.11945C17.4795 8.11945 17.8806 8.52054 17.8806 9.01526C17.8804 9.50998 17.4795 9.91107 16.9848 9.91107Z" fill="black"/>
<path d="M13 0C5.8214 0 0 5.8214 0 13C0 20.1786 5.8214 26 13 26C20.1786 26 26 20.1786 26 13C26 5.8214 20.1786 0 13 0ZM20.4198 16.0776C20.3837 16.8723 20.2574 17.4148 20.0729 17.8897C19.6851 18.8924 18.8924 19.6851 17.8897 20.0729C17.415 20.2574 16.8723 20.3835 16.0778 20.4198C15.2818 20.4561 15.0275 20.4648 13.0002 20.4648C10.9727 20.4648 10.7186 20.4561 9.92238 20.4198C9.12793 20.3835 8.58521 20.2574 8.11052 20.0729C7.61223 19.8854 7.16115 19.5916 6.78822 19.2118C6.40855 18.8391 6.11478 18.3878 5.92732 17.8897C5.74284 17.415 5.61649 16.8723 5.58038 16.0778C5.54369 15.2816 5.53516 15.0273 5.53516 13C5.53516 10.9727 5.54369 10.7184 5.58018 9.92238C5.61629 9.12773 5.74245 8.58521 5.92693 8.11032C6.11438 7.61223 6.40836 7.16095 6.78822 6.78822C7.16095 6.40836 7.61223 6.11458 8.11032 5.92712C8.58521 5.74265 9.12773 5.61649 9.92238 5.58018C10.7184 5.54388 10.9727 5.53516 13 5.53516C15.0273 5.53516 15.2816 5.54388 16.0776 5.58038C16.8723 5.61649 17.4148 5.74265 17.8897 5.92693C18.3878 6.11438 18.8391 6.40836 19.212 6.78822C19.5916 7.16115 19.8856 7.61223 20.0729 8.11032C20.2576 8.58521 20.3837 9.12773 20.42 9.92238C20.4563 10.7184 20.4648 10.9727 20.4648 13C20.4648 15.0273 20.4563 15.2816 20.4198 16.0776V16.0776Z" fill="black"/>
</svg>
