<svg width="69" height="69" viewBox="0 0 69 69" fill="none" xmlns="http://www.w3.org/2000/svg">
<path d="M58.6788 59.7807L44.0878 24.2157C43.2786 22.2426 42.868 20.1611 42.868 18.0286V8.62763C42.868 7.61531 43.2623 6.66353 43.9783 5.94759C44.8511 5.07477 45.3322 3.91399 45.3322 2.67952V1.34766C45.3322 0.603287 44.7284 0 43.9846 0H25.1685C24.4241 0 23.8208 0.603287 23.8208 1.34766V2.67952C23.8208 3.91399 24.3014 5.07477 25.1742 5.94759C25.8902 6.66353 26.2845 7.61531 26.2845 8.62816V18.0286C26.2845 20.1611 25.8744 22.2426 25.0647 24.2157L21.0555 33.9883C21.0539 33.992 21.0523 33.9957 21.0507 33.9994L10.4737 59.7807C9.62671 61.8458 9.86308 64.1858 11.1065 66.0394C12.3499 67.8934 14.4246 69 16.6566 69H52.4959C54.7279 69 56.8031 67.8934 58.0465 66.0394C59.2894 64.1853 59.5258 61.8458 58.6788 59.7807V59.7807ZM27.5584 25.2385C28.5018 22.9396 28.9798 20.5139 28.9798 18.0286V8.62763C28.9798 6.89568 28.3054 5.26691 27.0804 4.04192C26.7204 3.68184 26.5203 3.20384 26.5161 2.69531H42.6369C42.6327 3.20384 42.4327 3.68131 42.0721 4.04192C40.8476 5.26691 40.1727 6.89516 40.1727 8.62763V18.0281C40.1727 20.5133 40.6512 22.9391 41.5941 25.238L44.8479 33.1692H24.3046L27.5584 25.2385ZM55.8076 64.538C55.0548 65.6609 53.8477 66.3047 52.4959 66.3047H16.6566C15.3053 66.3047 14.0982 65.6609 13.3449 64.538C12.7769 63.691 12.56 62.7087 12.7074 61.74H14.9278C15.6717 61.74 16.2755 61.1362 16.2755 60.3924C16.2755 59.648 15.6717 59.0447 14.9278 59.0447H13.6897L15.2374 55.2713H17.5105C18.2549 55.2713 18.8582 54.6675 18.8582 53.9236C18.8582 53.1793 18.2549 52.576 17.5105 52.576H16.3434L17.8911 48.8025H20.2285C20.9728 48.8025 21.5761 48.1987 21.5761 47.4549C21.5761 46.7105 20.9728 46.1072 20.2285 46.1072H18.9971L20.5454 42.3338H22.9459C23.6902 42.3338 24.2935 41.73 24.2935 40.9861C24.2935 40.2418 23.6902 39.6385 22.9459 39.6385H21.6509L23.1991 35.865H45.9534L56.1851 60.804C56.6978 62.0543 56.5604 63.4156 55.8076 64.538V64.538Z" fill="#FF6D6D"/>
<path d="M52.0238 59.8649C51.7416 59.1758 50.9551 58.8463 50.2661 59.1279C49.5775 59.4101 49.2474 60.1965 49.5291 60.8856L49.5364 60.9025C49.7502 61.4242 50.2529 61.74 50.7841 61.74C50.9541 61.74 51.1268 61.7079 51.2942 61.6395C51.9827 61.3573 52.3128 60.5703 52.0306 59.8817L52.0238 59.8649Z" fill="#FF6D6D"/>
<path d="M50.119 55.2218L45.2927 43.4582C45.0106 42.7697 44.2236 42.4401 43.5345 42.7228C42.8459 43.005 42.5169 43.7925 42.799 44.4811L47.6253 56.2447C47.8391 56.7663 48.3418 57.0811 48.873 57.0811C49.043 57.0811 49.2162 57.049 49.3836 56.9801C50.0722 56.6979 50.4017 55.9104 50.119 55.2218V55.2218Z" fill="#FF6D6D"/>
</svg>
