<svg width="510" height="512" viewBox="0 0 510 512" fill="none" xmlns="http://www.w3.org/2000/svg">
<path d="M206 456H254V472H206V456Z" fill="#FFE600"/>
<path d="M502 138.232L482.36 131.68L491.616 113.168L460.832 82.384L442.312 91.648L435.768 72H392.24L385.696 91.648L367.176 82.384L336.392 113.168L339.8 120H304.984C287.88 54.752 227.992 8 159.952 8H156.048C73.3121 8 6.00005 75.312 6.00005 158.04C6.00005 206.96 29.9201 252.912 70.0001 280.96C80.0161 287.968 86.0001 299.464 86.0001 311.688V312H32.4561L2.45605 392H30.0001V464C30.0001 486.056 47.9441 504 70.0001 504H246C268.056 504 286 486.056 286 464V392H313.544L283.544 312H230V311.696C230 299.472 235.984 287.976 246 280.968C274.04 261.344 294.312 232.736 303.856 200H339.8L336.384 206.832L367.168 237.616L385.688 228.352L392.232 248H435.76L442.304 228.352L460.824 237.616L491.608 206.832L482.352 188.32L502 181.768V138.232ZM149.384 312L138.504 176H158.416C159.728 176.92 161.136 177.72 162.672 178.304L176.872 183.632L166.616 312H149.384ZM168.296 163.32C166.92 162.8 166 161.472 166 160C166 158.528 166.92 157.2 168.304 156.68L214 139.544V180.456L168.296 163.32ZM230 168H326V181.768L332.696 184H230V168ZM326 138.232V152H230V136H332.696L326 138.232ZM79.1681 267.856C43.3761 242.8 22.0001 201.744 22.0001 158.04C22.0001 84.136 82.1361 24 156.048 24H159.952C219.336 24 271.816 63.832 288.456 120H220.544L162.688 141.696C155.104 144.536 150 151.896 150 160H137.224L135.736 141.448C134.416 124.936 120.408 112 103.84 112H102C84.3521 112 70.0001 126.352 70.0001 144C70.0001 161.648 84.3521 176 102 176H122.456L133.336 312H102V311.696C102 294.248 93.4721 277.864 79.1681 267.856ZM121.168 160H102C93.1761 160 86.0001 152.824 86.0001 144C86.0001 135.176 93.1761 128 102 128H103.84C112.12 128 119.128 134.472 119.784 142.72L121.168 160ZM43.5441 328H130.448L112.448 376H25.5441L43.5441 328ZM46.0001 464V392H123.544L142 342.792V488H70.0001C56.7681 488 46.0001 477.232 46.0001 464V464ZM270 464C270 477.232 259.232 488 246 488H158V342.792L176.456 392H270V464ZM290.456 376H187.544L169.544 328H272.448L290.456 376ZM236.832 267.856C222.528 277.864 214 294.248 214 311.696V312H182.664L192.464 189.472L220.544 200H287.192C278.168 227.376 260.592 251.224 236.832 267.856V267.856ZM486 170.232L467.648 176.352L466.296 179.88C465.896 180.904 465.496 181.92 465.056 182.912L463.504 186.376L472.152 203.672L457.68 218.144L440.384 209.496L436.92 211.048C435.936 211.488 434.936 211.888 433.92 212.272L430.36 213.616L424.232 232H403.76L397.632 213.616L394.072 212.272C393.056 211.888 392.056 211.488 391.072 211.048L387.608 209.496L370.312 218.144L355.84 203.672L364.488 186.376L362.936 182.912C362.488 181.912 362.096 180.904 361.696 179.88L360.344 176.352L342 170.232V149.76L360.352 143.64L361.704 140.112C362.104 139.088 362.504 138.072 362.944 137.08L364.496 133.616L355.848 116.32L370.32 101.848L387.616 110.496L391.08 108.944C392.064 108.504 393.064 108.104 394.08 107.72L397.64 106.376L403.768 88H424.24L430.368 106.384L433.928 107.728C434.944 108.112 435.944 108.512 436.928 108.952L440.392 110.504L457.688 101.856L472.16 116.328L463.512 133.624L465.064 137.088C465.512 138.088 465.904 139.096 466.304 140.12L467.656 143.648L486 149.768V170.232Z" fill="#FFE600"/>
<path d="M414 120C391.944 120 374 137.944 374 160C374 182.056 391.944 200 414 200C436.056 200 454 182.056 454 160C454 137.944 436.056 120 414 120ZM414 184C400.768 184 390 173.232 390 160C390 146.768 400.768 136 414 136C427.232 136 438 146.768 438 160C438 173.232 427.232 184 414 184Z" fill="#FFE600"/>
<path d="M54 160H38C38 165.696 38.408 171.464 39.208 177.128L55.048 174.88C54.352 169.952 54 164.952 54 160Z" fill="#FFE600"/>
<path d="M58.312 189.72L42.968 194.28C51.736 223.744 71.272 248.48 97.992 263.944L106.008 250.096C82.84 236.688 65.896 215.248 58.312 189.72Z" fill="#FFE600"/>
<path d="M134 56H150V72H134V56Z" fill="#FFE600"/>
<path d="M102 56H118V72H102V56Z" fill="#FFE600"/>
<path d="M198 56H214V72H198V56Z" fill="#FFE600"/>
<path d="M166 56H182V72H166V56Z" fill="#FFE600"/>
</svg>
