<svg width="89" height="89" viewBox="0 0 89 89" fill="none" xmlns="http://www.w3.org/2000/svg">
<path d="M19.4366 37.5236C19.6683 37.7553 19.9721 37.8713 20.2756 37.8713C20.5791 37.8713 20.8829 37.7553 21.1146 37.5236L21.9536 36.6846L22.7925 37.5236C23.0242 37.7553 23.328 37.8713 23.6315 37.8713C23.935 37.8713 24.2388 37.7553 24.4705 37.5236C24.9339 37.0602 24.9339 36.309 24.4705 35.8456L23.6318 35.0067L24.4708 34.1677C24.9342 33.7043 24.9342 32.9531 24.4708 32.4897C24.0074 32.0263 23.2562 32.0263 22.7928 32.4897L21.9536 33.3287L21.1146 32.4897C20.6512 32.0263 19.9 32.0263 19.4366 32.4897C18.9732 32.9531 18.9732 33.7043 19.4366 34.1677L20.2756 35.0067L19.4366 35.8456C18.9729 36.3093 18.9729 37.0602 19.4366 37.5236V37.5236Z" fill="#4EFCE2"/>
<path d="M35.0068 20.7667C36.9698 20.7667 38.5668 19.1697 38.5668 17.2067C38.5668 15.2436 36.9698 13.6467 35.0068 13.6467C33.0437 13.6467 31.4468 15.2436 31.4468 17.2067C31.4468 19.1697 33.0437 20.7667 35.0068 20.7667ZM35.0068 16.02C35.6615 16.02 36.1935 16.5525 36.1935 17.2067C36.1935 17.8608 35.6615 18.3933 35.0068 18.3933C34.352 18.3933 33.8201 17.8608 33.8201 17.2067C33.8201 16.5525 34.352 16.02 35.0068 16.02Z" fill="#4EFCE2"/>
<path d="M52.8068 18.3933C53.4622 18.3933 53.9935 17.862 53.9935 17.2067C53.9935 16.5513 53.4622 16.02 52.8068 16.02C52.1514 16.02 51.6201 16.5513 51.6201 17.2067C51.6201 17.862 52.1514 18.3933 52.8068 18.3933Z" fill="#4EFCE2"/>
<path d="M76.5401 53.9933H71.7934V51.62C71.7934 50.9647 71.2627 50.4333 70.6068 50.4333H27.8868C27.2308 50.4333 26.7001 50.9647 26.7001 51.62V53.9933H21.9534V51.124L70.1155 23.7867C70.4006 23.6251 70.6056 23.3533 70.6833 23.0347C70.761 22.7167 70.7029 22.3805 70.5246 22.1064L67.9311 18.1305C67.5858 17.6021 66.886 17.4345 66.3413 17.7528L11.8647 49.4072C11.4001 49.6765 11.1752 50.2242 11.3144 50.7422C11.4544 51.2602 11.9237 51.62 12.4601 51.62H13.6468V53.9933H12.4601C11.8042 53.9933 11.2734 54.5247 11.2734 55.18V66.6954C11.2734 68.8522 13.0279 70.6067 15.1847 70.6067H16.4731L18.5189 74.6974C18.7204 75.0997 19.1307 75.3534 19.5801 75.3534H69.4201C69.8698 75.3534 70.2798 75.0997 70.4816 74.6974L72.5274 70.6067H73.8158C75.9726 70.6067 77.7271 68.8522 77.7271 66.6954V55.18C77.7268 54.5247 77.196 53.9933 76.5401 53.9933ZM29.0734 52.8067H69.4201V53.9933H29.0734V52.8067ZM66.559 20.3709L67.8466 22.3455L20.4541 49.2467H16.8638L66.559 20.3709ZM16.0201 51.62H19.5801V53.9933H16.0201V51.62ZM68.6867 72.98H20.3138L19.1271 70.6067H69.8737L68.6867 72.98ZM75.3534 66.6954C75.3534 67.543 74.664 68.2334 73.8155 68.2334H15.1847C14.3365 68.2334 13.6468 67.5433 13.6468 66.6954V56.3667H14.8334H20.7668H75.3534V66.6954Z" fill="#4EFCE2"/>
<path d="M69.4201 65.86C71.3832 65.86 72.9801 64.2631 72.9801 62.3C72.9801 60.337 71.3832 58.74 69.4201 58.74C67.4571 58.74 65.8601 60.337 65.8601 62.3C65.8601 64.2631 67.4571 65.86 69.4201 65.86ZM69.4201 61.1133C70.0749 61.1133 70.6068 61.6459 70.6068 62.3C70.6068 62.9542 70.0749 63.4867 69.4201 63.4867C68.7654 63.4867 68.2334 62.9542 68.2334 62.3C68.2334 61.6459 68.7654 61.1133 69.4201 61.1133Z" fill="#4EFCE2"/>
<path d="M62.3002 65.86C64.2633 65.86 65.8602 64.2631 65.8602 62.3C65.8602 60.337 64.2633 58.74 62.3002 58.74C60.3372 58.74 58.7402 60.337 58.7402 62.3C58.7402 64.2631 60.3372 65.86 62.3002 65.86ZM62.3002 61.1133C62.955 61.1133 63.4869 61.6459 63.4869 62.3C63.4869 62.9542 62.955 63.4867 62.3002 63.4867C61.6455 63.4867 61.1136 62.9542 61.1136 62.3C61.1136 61.6459 61.6455 61.1133 62.3002 61.1133Z" fill="#4EFCE2"/>
<path d="M16.02 59.9267V64.6734C16.02 65.3287 16.5508 65.86 17.2067 65.86H21.9534C22.6093 65.86 23.14 65.3287 23.14 64.6734V59.9267C23.14 59.2713 22.6093 58.74 21.9534 58.74H17.2067C16.5508 58.74 16.02 59.2713 16.02 59.9267ZM18.3934 61.1133H20.7667V63.4867H18.3934V61.1133Z" fill="#4EFCE2"/>
<path d="M53.9934 42.1267V45.6867C53.9934 46.342 54.5241 46.8733 55.1801 46.8733C55.836 46.8733 56.3667 46.342 56.3667 45.6867V42.1267C56.3667 41.4713 55.836 40.94 55.1801 40.94C54.5241 40.94 53.9934 41.4713 53.9934 42.1267Z" fill="#4EFCE2"/>
<path d="M60.2744 43.661L59.0878 44.8477C58.6244 45.3111 58.6244 46.0622 59.0878 46.5256C59.3195 46.7573 59.6233 46.8733 59.9268 46.8733C60.2302 46.8733 60.534 46.7573 60.7657 46.5256L61.9524 45.339C62.4158 44.8756 62.4158 44.1244 61.9524 43.661C61.489 43.1976 60.7381 43.1973 60.2744 43.661Z" fill="#4EFCE2"/>
<path d="M48.4078 43.661C47.9445 44.1244 47.9445 44.8756 48.4078 45.339L49.5945 46.5256C49.8262 46.7573 50.13 46.8733 50.4335 46.8733C50.737 46.8733 51.0408 46.7573 51.2725 46.5256C51.7359 46.0622 51.7359 45.3111 51.2725 44.8477L50.0858 43.661C49.6224 43.1973 48.8715 43.1973 48.4078 43.661Z" fill="#4EFCE2"/>
</svg>
