<svg width="79" height="79" viewBox="0 0 79 79" fill="none" xmlns="http://www.w3.org/2000/svg">
<path d="M3.58372 34.5225H10.2107C10.6027 35.9359 11.1673 37.2957 11.8933 38.57L7.20285 43.2587C6.97887 43.4826 6.85288 43.7864 6.85288 44.1037C6.85288 44.421 6.97887 44.7248 7.20285 44.9488L12.2704 50.0177C12.737 50.4834 13.4929 50.4834 13.9596 50.0177L18.6505 45.3263C19.9249 46.0519 21.2832 46.6169 22.6966 47.0084V53.6354C22.6966 54.2952 23.2314 54.83 23.8912 54.83H31.0585C31.7183 54.83 32.2531 54.2952 32.2531 53.6354V47.0084C33.6665 46.6169 35.0248 46.0519 36.2992 45.3263L40.9901 50.0177C41.4642 50.4657 42.2057 50.4657 42.6793 50.0177L47.7478 44.9488C47.9718 44.7248 48.0977 44.421 48.0977 44.1037C48.0977 43.7864 47.9718 43.4826 47.7478 43.2587L43.0563 38.57C43.7824 37.2957 44.347 35.9359 44.739 34.5225H51.366C52.0258 34.5225 52.5605 33.9878 52.5605 33.328V26.1606C52.5605 25.5013 52.0258 24.9661 51.366 24.9661H44.739C44.347 23.5531 43.7824 22.1934 43.0563 20.9191L47.7468 16.2304C47.9708 16.0064 48.0968 15.7027 48.0968 15.3854C48.0968 15.0681 47.9708 14.7643 47.7468 14.5403L42.6793 9.47137C42.2127 9.00522 41.4568 9.00522 40.9901 9.47137L36.2992 14.1628C35.0248 13.4377 33.666 12.8726 32.2531 12.4806V5.85318C32.2531 5.19384 31.7183 4.65862 31.0585 4.65862H23.8912C23.2314 4.65862 22.6966 5.19384 22.6966 5.85318V12.4806C21.2837 12.8726 19.9249 13.4377 18.6505 14.1628L13.9596 9.47137C13.4855 9.02342 12.744 9.02342 12.2704 9.47137L7.20192 14.5403C6.97794 14.7643 6.85195 15.0681 6.85195 15.3854C6.85195 15.7027 6.97794 16.0064 7.20192 16.2304L11.8933 20.9191C11.1673 22.1934 10.6027 23.5531 10.2107 24.9661H3.58372C2.92391 24.9661 2.38916 25.5013 2.38916 26.1606V33.328C2.38916 33.9878 2.92391 34.5225 3.58372 34.5225V34.5225ZM4.77827 27.3552H11.1454C11.7067 27.3552 12.1925 26.9646 12.3124 26.4163C12.7043 24.6273 13.4131 22.9223 14.4052 21.3824C14.708 20.9102 14.6408 20.29 14.2437 19.8929L9.73568 15.3849L13.115 12.0051L17.6221 16.5132C18.0192 16.9112 18.6398 16.9784 19.113 16.6751C20.6533 15.6835 22.3579 14.9747 24.1469 14.5823C24.6947 14.4619 25.0857 13.9762 25.0857 13.4148V7.04773H29.864V13.4148C29.864 13.9762 30.255 14.4619 30.8028 14.5823C32.5918 14.9747 34.2964 15.6835 35.8367 16.6751C36.3099 16.9784 36.9305 16.9112 37.3276 16.5132L41.8347 12.0051L45.2131 15.3849L40.706 19.8915C40.3079 20.2891 40.2412 20.9097 40.5445 21.3824C41.5365 22.9232 42.2444 24.6278 42.6359 26.4173C42.7563 26.9656 43.2421 27.3566 43.8029 27.3566H50.1714V32.1348H43.8029C43.2421 32.1348 42.7563 32.5254 42.6359 33.0737C42.2444 34.8627 41.5361 36.5673 40.5445 38.1062C40.2417 38.5789 40.3089 39.199 40.706 39.5961L45.214 44.1032L41.8347 47.4839L37.3276 42.9754C36.9305 42.5779 36.3099 42.5107 35.8367 42.814C34.2973 43.806 32.5932 44.5148 30.8042 44.9068C30.2555 45.0262 29.864 45.5124 29.864 46.0738V52.4409H25.0857V46.0738C25.0857 45.5124 24.6942 45.0262 24.1455 44.9068C22.3565 44.5148 20.6523 43.806 19.113 42.814C18.6398 42.5107 18.0192 42.5779 17.6221 42.9754L13.115 47.4839L9.73662 44.1042L14.2437 39.5971C14.6418 39.2 14.7085 38.5794 14.4052 38.1062C13.4131 36.5659 12.7043 34.8608 12.3124 33.0713C12.192 32.523 11.7067 32.1334 11.1454 32.1334H4.77827V27.3552Z" fill="#FFFA00"/>
<path d="M27.4749 39.3008C32.7529 39.3008 37.0314 35.0228 37.0314 29.7443C37.0314 24.4663 32.7529 20.1879 27.4749 20.1879C22.1969 20.1879 17.9185 24.4663 17.9185 29.7443C17.9241 35.0195 22.1997 39.2952 27.4749 39.3008ZM27.4749 22.577C31.4328 22.577 34.6423 25.7864 34.6423 29.7443C34.6423 33.7027 31.4328 36.9117 27.4749 36.9117C23.517 36.9117 20.3076 33.7027 20.3076 29.7443C20.3118 25.7874 23.5179 22.5812 27.4749 22.577Z" fill="#FFFA00"/>
<path d="M27.4748 42.8844C34.7318 42.8844 40.6149 37.0017 40.6149 29.7443C40.6149 22.4874 34.7318 16.6042 27.4748 16.6042C20.2179 16.6042 14.3347 22.4874 14.3347 29.7443C14.3436 36.998 20.2212 42.876 27.4748 42.8844ZM27.4748 18.9933C33.4126 18.9933 38.2258 23.8065 38.2258 29.7443C38.2258 35.6821 33.4126 40.4953 27.4748 40.4953C21.537 40.4953 16.7238 35.6821 16.7238 29.7443C16.7304 23.8098 21.5398 18.9998 27.4748 18.9933Z" fill="#FFFA00"/>
<path d="M70.4789 59.6082V50.0518C70.4789 49.3924 69.9441 48.8572 69.2843 48.8572H66.8952V39.3008C66.8952 38.6414 66.3605 38.1062 65.7007 38.1062H54.9496C54.2898 38.1062 53.7551 38.6414 53.7551 39.3008V48.8572H47.7823C47.1225 48.8572 46.5877 49.3924 46.5877 50.0518V59.6082H8.36194C5.06478 59.6124 2.39336 62.2838 2.38916 65.581V67.9701C2.39336 71.2677 5.06478 73.9392 8.36194 73.9429H70.4789C73.776 73.9392 76.4475 71.2677 76.4517 67.9701V65.581C76.4475 62.2838 73.776 59.6124 70.4789 59.6082V59.6082ZM68.0898 59.6082H59.7279V51.2463H68.0898V59.6082ZM56.1442 40.4953H64.5061V48.8572H56.1442V40.4953ZM48.9769 51.2463H57.3388V59.6082H48.9769V51.2463ZM74.0625 67.9701C74.0625 69.9495 72.4578 71.5538 70.4789 71.5538H8.36194C6.38299 71.5538 4.77827 69.9495 4.77827 67.9701V65.581C4.77827 63.602 6.38299 61.9973 8.36194 61.9973H70.4789C72.4578 61.9973 74.0625 63.602 74.0625 65.581V67.9701Z" fill="#FFFA00"/>
<path d="M39.4203 63.1919C37.4414 63.1919 35.8367 64.7966 35.8367 66.7755C35.8367 68.7549 37.4414 70.3592 39.4203 70.3592C41.3993 70.3592 43.004 68.7549 43.004 66.7755C43.004 64.7966 41.3993 63.1919 39.4203 63.1919V63.1919ZM39.4203 67.9701C38.7605 67.9701 38.2258 67.4353 38.2258 66.7755C38.2258 66.1162 38.7605 65.581 39.4203 65.581C40.0801 65.581 40.6149 66.1162 40.6149 66.7755C40.6149 67.4353 40.0801 67.9701 39.4203 67.9701Z" fill="#FFFA00"/>
<path d="M27.4748 63.1919C25.4958 63.1919 23.8911 64.7966 23.8911 66.7755C23.8911 68.7549 25.4958 70.3592 27.4748 70.3592C29.4537 70.3592 31.0584 68.7549 31.0584 66.7755C31.0584 64.7966 29.4537 63.1919 27.4748 63.1919V63.1919ZM27.4748 67.9701C26.815 67.9701 26.2802 67.4353 26.2802 66.7755C26.2802 66.1162 26.815 65.581 27.4748 65.581C28.1346 65.581 28.6693 66.1162 28.6693 66.7755C28.6693 67.4353 28.1346 67.9701 27.4748 67.9701Z" fill="#FFFA00"/>
<path d="M51.3659 63.1919C49.3869 63.1919 47.7822 64.7966 47.7822 66.7755C47.7822 68.7549 49.3869 70.3592 51.3659 70.3592C53.3448 70.3592 54.9495 68.7549 54.9495 66.7755C54.9495 64.7966 53.3448 63.1919 51.3659 63.1919V63.1919ZM51.3659 67.9701C50.7061 67.9701 50.1713 67.4353 50.1713 66.7755C50.1713 66.1162 50.7061 65.581 51.3659 65.581C52.0257 65.581 52.5604 66.1162 52.5604 66.7755C52.5604 67.4353 52.0257 67.9701 51.3659 67.9701Z" fill="#FFFA00"/>
<path d="M15.5292 63.1919C13.5503 63.1919 11.9456 64.7966 11.9456 66.7755C11.9456 68.7549 13.5503 70.3592 15.5292 70.3592C17.5082 70.3592 19.1129 68.7549 19.1129 66.7755C19.1129 64.7966 17.5082 63.1919 15.5292 63.1919V63.1919ZM15.5292 67.9701C14.8694 67.9701 14.3347 67.4353 14.3347 66.7755C14.3347 66.1162 14.8694 65.581 15.5292 65.581C16.189 65.581 16.7238 66.1162 16.7238 66.7755C16.7238 67.4353 16.189 67.9701 15.5292 67.9701Z" fill="#FFFA00"/>
<path d="M63.3115 63.1919C61.3325 63.1919 59.7278 64.7966 59.7278 66.7755C59.7278 68.7549 61.3325 70.3592 63.3115 70.3592C65.2904 70.3592 66.8952 68.7549 66.8952 66.7755C66.8952 64.7966 65.2904 63.1919 63.3115 63.1919V63.1919ZM63.3115 67.9701C62.6517 67.9701 62.1169 67.4353 62.1169 66.7755C62.1169 66.1162 62.6517 65.581 63.3115 65.581C63.9713 65.581 64.506 66.1162 64.506 66.7755C64.506 67.4353 63.9713 67.9701 63.3115 67.9701Z" fill="#FFFA00"/>
</svg>
