<svg width="511" height="511" viewBox="0 0 511 511" fill="none" xmlns="http://www.w3.org/2000/svg">
<g clip-path="url(#clip0)">
<path d="M246.876 194.841C250.206 198.003 255.742 197.364 258.272 193.547L308.092 118.358C310.377 114.912 309.434 110.265 305.987 107.98C302.545 105.699 297.898 106.643 295.613 110.085L250.716 177.843L225.769 154.155C222.771 151.309 218.034 151.434 215.184 154.432C212.338 157.43 212.463 162.167 215.461 165.013C215.457 165.013 246.849 194.818 246.876 194.841V194.841Z" fill="#4EFCE2"/>
<path d="M251.983 309.013C253.414 309.667 254.997 310.014 256.572 310.014H256.635C258.237 310.007 259.843 309.64 261.278 308.954C375.102 254.822 394.392 138.027 397.589 103.52C398.322 95.641 393.885 88.3038 386.552 85.2628C363.893 75.8555 348.49 54.8185 346.353 30.3625C345.695 22.8342 339.262 16.9668 331.683 16.9668H331.593L178.245 17.8674C170.514 17.9103 164.233 23.7855 163.641 31.532C161.754 55.9959 146.576 77.1849 124.031 86.8301C116.771 89.9334 112.444 97.3096 113.271 105.185C116.873 139.653 137.532 256.217 251.983 309.013V309.013ZM129.918 100.592C157.563 88.7716 176.186 62.8185 178.553 32.8342L331.461 31.9375C334.178 61.8555 353.067 87.5708 380.813 99.0874C382.053 99.6059 382.806 100.83 382.685 102.14C379.683 134.479 361.722 243.52 256.545 294.619C150.764 244.763 131.539 135.933 128.155 103.629C128.019 102.323 128.729 101.103 129.918 100.592Z" fill="#4EFCE2"/>
<path d="M148.608 142.089C149.512 145.419 153.734 148.467 157.797 147.348C161.781 146.249 164.14 142.152 163.056 138.163C161.15 131.138 159.547 124.015 158.288 116.959C178.623 103.707 193.715 83.9296 201.118 60.8303L309.219 60.1948C316.892 83.2006 332.213 102.807 352.704 115.816C351.531 122.892 350.01 130.039 348.182 137.091C347.145 141.095 349.55 145.181 353.55 146.218C357.558 147.255 361.64 144.849 362.677 140.846C364.821 132.565 366.568 124.159 367.862 115.863C368.587 111.228 366.467 106.67 362.467 104.253C343.379 92.7249 329.27 74.6392 322.74 53.3293C321.27 48.5379 316.751 45.2085 311.738 45.2085H311.668L198.491 45.8713C193.446 45.9025 188.931 49.2981 187.516 54.1246C181.239 75.5086 167.341 93.758 148.389 105.512C144.417 107.972 142.354 112.553 143.13 117.185C144.526 125.462 146.366 133.84 148.608 142.089V142.089Z" fill="#4EFCE2"/>
<path d="M347.546 164.284C343.726 162.701 339.352 164.526 337.773 168.346C320.474 210.272 293.091 242.147 256.358 263.126C219.34 242.553 191.559 210.947 173.773 169.153C172.151 165.352 167.754 163.582 163.953 165.2C160.148 166.818 158.378 171.216 159.995 175.017C179.407 220.623 209.988 255.005 250.888 277.2C252.611 278.139 254.498 278.603 256.381 278.603C258.311 278.603 260.237 278.116 261.991 277.137C302.584 254.49 332.736 219.808 351.613 174.054C353.192 170.233 351.371 165.859 347.546 164.284Z" fill="#4EFCE2"/>
<path d="M48.0272 399.991C33.4268 399.991 21.5438 411.87 21.5438 426.474C21.5438 441.078 33.4268 452.957 48.0272 452.957C62.6314 452.957 74.5144 441.078 74.5144 426.474C74.5144 411.87 62.6353 399.991 48.0272 399.991V399.991ZM48.0272 437.987C41.6802 437.987 36.5145 432.825 36.5145 426.474C36.5145 420.127 41.6802 414.961 48.0272 414.961C54.378 414.961 59.5437 420.127 59.5437 426.474C59.5437 432.825 54.378 437.987 48.0272 437.987Z" fill="#4EFCE2"/>
<path d="M505.632 326.708C496.037 312.611 476.72 308.876 462.571 318.381L364.716 383.874L343.827 382.7L343.293 377.351C341.211 356.404 325.2 339.714 304.358 336.767C304.225 336.747 304.096 336.731 303.964 336.72L198.522 327.48C194.954 326.923 183.535 323.644 152.159 305.648C135.851 296.295 117.477 291.016 98.8106 290.299V270.716C98.8106 260.888 90.8184 252.896 80.99 252.896H17.8206C7.99607 252.896 0 260.892 0 270.716V463.585C0 473.409 7.99607 481.405 17.8206 481.405H80.99C90.8145 481.405 98.8106 473.409 98.8106 463.585V458.271L190.982 493.175C191.184 493.253 198.67 496.053 212.432 494.754C212.471 494.75 365.582 472.676 365.582 472.676C365.621 472.672 365.656 472.665 365.695 472.657C378.778 470.571 391.117 465.039 401.383 456.669C401.476 456.591 401.566 456.513 401.655 456.435L500.567 367.472C512.224 357.121 514.404 339.597 505.632 326.708V326.708ZM490.591 356.31L391.784 445.179C383.605 451.811 373.788 456.197 363.387 457.866L210.35 479.928C210.315 479.932 210.264 479.94 210.218 479.947C210.194 479.951 210.167 479.955 210.143 479.959C205.567 480.68 200.798 480.376 195.968 479.055L98.8106 442.263V356.778C98.8106 352.642 95.4577 349.293 91.3252 349.293C87.1888 349.293 83.8399 352.642 83.8399 356.778V463.585C83.8399 465.156 82.5611 466.435 80.99 466.435H17.8206C16.2495 466.435 14.9707 465.156 14.9707 463.585V270.716C14.9707 269.145 16.2495 267.866 17.8206 267.866H80.99C82.5611 267.866 83.8399 269.145 83.8399 270.716V322.965C83.8399 327.102 87.1927 330.451 91.3252 330.451C95.4616 330.451 98.8106 327.098 98.8106 322.965V305.285C114.869 305.995 130.666 310.58 144.709 318.638C182.553 340.342 193.122 341.839 196.596 342.33C196.728 342.349 196.857 342.361 196.99 342.377L302.443 351.616C316.346 353.671 327.005 364.837 328.396 378.833L328.794 382.821L187.613 391.538C187.516 391.53 187.418 391.523 187.333 391.515C182.756 391.102 178.623 388.938 175.687 385.421C173.04 382.244 168.319 381.815 165.146 384.466C161.968 387.113 161.539 391.835 164.19 395.008C169.684 401.597 177.434 405.538 185.999 406.427C190.623 406.911 337.028 397.312 337.028 397.312L366.377 398.961C367.999 399.055 369.609 398.61 370.958 397.706L470.911 330.813C478.252 325.882 488.275 327.815 493.254 335.129C497.803 341.819 496.673 350.911 490.591 356.31V356.31Z" fill="#4EFCE2"/>
</g>
<defs>
<clipPath id="clip0">
<rect width="511" height="511" fill="white"/>
</clipPath>
</defs>
</svg>
