<svg width="34" height="28" viewBox="0 0 34 28" fill="none" xmlns="http://www.w3.org/2000/svg">
<path d="M2.62063 27.4C1.42063 22.92 0.820625 18.92 0.820625 15.4C0.820625 10.68 1.98063 7.04 4.30063 4.48C6.62063 1.84 9.98063 0.519998 14.3806 0.519998V6.16C12.3006 6.16 10.7806 6.76 9.82063 7.95999C8.94063 9.07999 8.50063 10.84 8.50063 13.24V15.76H14.9806V27.4H2.62063ZM20.7406 27.4C19.6206 23.24 19.0606 19.24 19.0606 15.4C19.0606 10.68 20.1806 7.04 22.4206 4.48C24.7406 1.84 28.1006 0.519998 32.5006 0.519998V6.16C28.5806 6.16 26.6206 8.52 26.6206 13.24V15.76H33.1006V27.4H20.7406Z" fill="#4EFCE2"/>
</svg>
