<svg width="79" height="79" viewBox="0 0 79 79" fill="none" xmlns="http://www.w3.org/2000/svg">
<g clip-path="url(#clip0)">
<path d="M31.7394 52.9129C24.5633 52.2437 17.5783 50.2245 11.152 46.9616C10.5099 46.6198 9.71229 46.8632 9.37052 47.5053C9.02875 48.1474 9.27221 48.945 9.9143 49.2868C16.6388 52.7069 23.949 54.8253 31.4602 55.5304C32.1713 55.5869 32.7981 55.0668 32.8737 54.3575C32.9494 53.6482 32.4464 53.0076 31.7394 52.9129V52.9129Z" fill="#FFFA00"/>
<path d="M39.4999 11.1917C28.9139 11.1917 19.0521 13.6815 12.4438 18.0225C12.0505 18.2813 11.8252 18.7301 11.8526 19.2C11.88 19.67 12.1561 20.0896 12.5768 20.3008C12.9974 20.512 13.4988 20.4827 13.8921 20.224C20.0791 16.1568 29.4143 13.825 39.4999 13.825C40.2271 13.825 40.8166 13.2355 40.8166 12.5083C40.8166 11.7812 40.2271 11.1917 39.4999 11.1917V11.1917Z" fill="#FFFA00"/>
<path d="M39.5 5.925C17.7197 5.925 0 15.9659 0 28.3083V44.1083C0 55.8175 15.1957 65.2685 35.55 66.3798V71.7583C35.55 72.4855 36.1395 73.075 36.8667 73.075C37.4829 73.075 36.947 73.3383 46.7891 66.1151C65.4752 64.1664 79 54.9471 79 44.1083V28.3083C79 15.9659 61.2803 5.925 39.5 5.925ZM36.9154 63.8057C17.6921 63.0933 2.63333 54.4402 2.63333 44.1083V36.4019C9.28645 46.2045 24.781 50.1913 36.818 50.6377C37.1755 50.6509 37.5231 50.5181 37.7806 50.2697C38.0382 50.0213 38.1836 49.6788 38.1833 49.321V45.3921C50.0465 54.1032 39.8515 46.6126 54.3902 57.275L38.1833 69.1592V65.1223C38.1838 64.4138 37.6235 63.8319 36.9154 63.8057V63.8057ZM5.80255 36.2083C11.6802 29.0983 25.0167 24.3583 39.5 24.3583C53.9833 24.3583 67.3238 29.0983 73.1988 36.2083C68.1954 42.2413 57.8925 46.6192 45.8674 47.7647L37.6461 41.7265C37.2455 41.4322 36.7133 41.3886 36.2702 41.6138C35.827 41.839 35.5485 42.2946 35.55 42.7917V47.9425C22.5861 47.192 11.1693 42.6771 5.80255 36.2083ZM76.3667 44.1083C76.3667 52.5245 65.8979 60.1137 51.2987 62.805L57.3948 58.3283C57.7331 58.0803 57.933 57.6859 57.933 57.2664C57.933 56.847 57.7331 56.4526 57.3948 56.2046L48.9945 50.0426C58.8142 48.6759 70.8814 44.4915 76.3667 36.3848V44.1083ZM74.7722 33.97C60.3507 17.6618 18.6598 17.6512 4.22782 33.97C3.20688 32.2562 2.65683 30.3031 2.63333 28.3083C2.63333 17.4182 19.172 8.55834 39.5 8.55834C59.828 8.55834 76.3667 17.4182 76.3667 28.3083C76.3432 30.3031 75.7931 32.2562 74.7722 33.97Z" fill="#FFFA00"/>
</g>
<defs>
<clipPath id="clip0">
<rect width="79" height="79" fill="white"/>
</clipPath>
</defs>
</svg>
