<svg width="26" height="26" viewBox="0 0 26 26" fill="none" xmlns="http://www.w3.org/2000/svg">
<path d="M13 0C5.8214 0 0 5.8214 0 13C0 20.1786 5.8214 26 13 26C20.1786 26 26 20.1786 26 13C26 5.8214 20.1786 0 13 0ZM18.9357 10.136C18.9414 10.264 18.9442 10.3925 18.9442 10.5216C18.9442 14.4645 15.9429 19.0112 10.4544 19.0114H10.4546H10.4544C8.76929 19.0114 7.20122 18.5175 5.88071 17.6711C6.11418 17.6987 6.35182 17.7123 6.59244 17.7123C7.99051 17.7123 9.2771 17.2355 10.2985 16.4351C8.99225 16.4109 7.89093 15.5482 7.51086 14.3626C7.69276 14.3975 7.87982 14.4165 8.07164 14.4165C8.34399 14.4165 8.60782 14.3798 8.85855 14.3114C7.49321 14.038 6.46469 12.8314 6.46469 11.3865C6.46469 11.373 6.46469 11.3609 6.46509 11.3484C6.86717 11.572 7.32698 11.7065 7.81654 11.7215C7.01535 11.187 6.48869 10.2731 6.48869 9.23782C6.48869 8.69113 6.63647 8.17896 6.89276 7.73799C8.36423 9.5435 10.5633 10.7309 13.0432 10.8557C12.9921 10.6371 12.9657 10.4094 12.9657 10.1753C12.9657 8.52808 14.3021 7.1917 15.9499 7.1917C16.8082 7.1917 17.5834 7.5545 18.1279 8.13452C18.8077 8.00043 19.446 7.75208 20.0227 7.41029C19.7995 8.10675 19.3266 8.69113 18.7105 9.06068C19.3141 8.98848 19.8894 8.8284 20.424 8.59076C20.0247 9.18922 19.5182 9.71489 18.9357 10.136V10.136Z" fill="black"/>
</svg>
