<svg width="69" height="69" viewBox="0 0 69 69" fill="none" xmlns="http://www.w3.org/2000/svg">
<g clip-path="url(#clip0)">
<path d="M52.034 10.8671L16.9658 45.9352L18.4906 47.46L53.5588 12.3919L52.034 10.8671Z" fill="#FF6D6D"/>
<path d="M64.6865 8.62403C65.6389 8.62516 66.565 8.31134 67.3205 7.73145C68.076 7.15155 68.6186 6.33812 68.8638 5.4178C69.1089 4.49748 69.0429 3.52193 68.676 2.64303C68.3091 1.76414 67.6618 1.03122 66.8351 0.558409C66.0083 0.0855925 65.0484 -0.100591 64.1048 0.0288469C63.1613 0.158285 62.287 0.59608 61.6181 1.27407C60.9492 1.95205 60.5232 2.83218 60.4065 3.77742C60.2899 4.72266 60.489 5.67995 60.9729 6.50025L57.3695 10.1038L54.3201 7.05441C53.3297 6.06661 51.9945 5.50196 50.5959 5.47951C49.1973 5.45706 47.8446 5.97856 46.8231 6.93407C44.1353 5.73235 41.2855 4.93232 38.365 4.55963C38.0093 3.83799 37.4586 3.23033 36.7754 2.80542C36.0921 2.38051 35.3036 2.15531 34.499 2.15531C33.6944 2.15531 32.9059 2.38051 32.2227 2.80542C31.5394 3.23033 30.9888 3.83799 30.633 4.55963C27.7125 4.93233 24.8626 5.73236 22.1748 6.93407C21.1533 5.9786 19.8006 5.45713 18.4021 5.47958C17.0035 5.50203 15.6683 6.06665 14.678 7.05441L11.6285 10.1038L8.02512 6.50025C8.55914 5.59505 8.74465 4.52615 8.54689 3.49394C8.34912 2.46173 7.78165 1.5371 6.95086 0.893394C6.12007 0.249686 5.08302 -0.0688949 4.03413 -0.00262097C2.98524 0.063653 1.99653 0.51023 1.25338 1.25339C0.510219 1.99655 0.0636415 2.98525 -0.00263241 4.03414C-0.0689064 5.08303 0.249674 6.12009 0.893383 6.95087C1.53709 7.78166 2.46172 8.34913 3.49393 8.5469C4.52614 8.74466 5.59504 8.55915 6.50024 8.02513L10.1037 11.6285L7.0544 14.678C6.0666 15.6683 5.50195 17.0036 5.4795 18.4022C5.45705 19.8008 5.97855 21.1534 6.93405 22.175C5.73237 24.8627 4.93233 27.7125 4.55962 30.633C3.83797 30.9888 3.23032 31.5395 2.80541 32.2227C2.3805 32.9059 2.1553 33.6944 2.1553 34.499C2.1553 35.3036 2.3805 36.0921 2.80541 36.7754C3.23032 37.4586 3.83797 38.0093 4.55962 38.365C4.93232 41.2856 5.73235 44.1354 6.93405 46.8232C5.97856 47.8447 5.45706 49.1974 5.47951 50.596C5.50196 51.9945 6.06661 53.3297 7.0544 54.3201L10.1037 57.3696L2.47102 65.0023L3.99576 66.527L11.6285 58.8943L14.678 61.9436C15.6681 62.9319 17.0034 63.4968 18.4021 63.5193C19.8009 63.5417 21.1536 63.0199 22.175 62.064C24.8627 63.2657 27.7125 64.0657 30.633 64.4384C30.9888 65.1601 31.5394 65.7677 32.2227 66.1926C32.9059 66.6175 33.6944 66.8427 34.499 66.8427C35.3036 66.8427 36.0921 66.6175 36.7754 66.1926C37.4586 65.7677 38.0093 65.1601 38.365 64.4384C41.2856 64.0657 44.1354 63.2657 46.8232 62.064C47.8445 63.02 49.1972 63.5418 50.596 63.5193C51.9947 63.4969 53.33 62.9319 54.3201 61.9436L57.3695 58.8943L65.0023 66.527L66.527 65.0023L58.8943 57.3696L61.9436 54.3201C62.9314 53.3297 63.4961 51.9945 63.5185 50.5959C63.541 49.1973 63.0195 47.8446 62.064 46.8231C63.2657 44.1353 64.0657 41.2855 64.4384 38.365C65.1601 38.0093 65.7677 37.4586 66.1926 36.7754C66.6175 36.0921 66.8427 35.3036 66.8427 34.499C66.8427 33.6944 66.6175 32.9059 66.1926 32.2227C65.7677 31.5395 65.1601 30.9888 64.4384 30.633C64.0657 27.7125 63.2657 24.8626 62.064 22.1748C63.0195 21.1533 63.541 19.8007 63.5185 18.4021C63.4961 17.0035 62.9314 15.6683 61.9436 14.678L58.8943 11.6285L62.4978 8.02513C63.1603 8.41784 63.9164 8.62473 64.6865 8.62403ZM2.15526 4.31153C2.15526 3.88506 2.28173 3.46817 2.51866 3.11358C2.75559 2.75898 3.09235 2.48261 3.48635 2.31941C3.88036 2.15621 4.31391 2.11351 4.73218 2.19671C5.15045 2.27991 5.53466 2.48527 5.83621 2.78683C6.13777 3.08838 6.34313 3.47259 6.42633 3.89086C6.50953 4.30913 6.46683 4.74268 6.30363 5.13669C6.14043 5.53069 5.86406 5.86745 5.50946 6.10438C5.15487 6.34131 4.73798 6.46778 4.31151 6.46778C3.73985 6.4671 3.19179 6.23971 2.78756 5.83548C2.38334 5.43125 2.15594 4.88319 2.15526 4.31153V4.31153ZM34.499 4.31153C35.0707 4.3122 35.6187 4.5396 36.023 4.94383C36.4272 5.34805 36.6546 5.89611 36.6553 6.46778V13.1532H38.8115V6.80105C40.996 7.13768 43.1327 7.7329 45.1766 8.57416L34.499 19.2519L32.3428 17.0957V6.46778C32.3434 5.89611 32.5708 5.34805 32.9751 4.94383C33.3793 4.5396 33.9273 4.3122 34.499 4.31153V4.31153ZM23.8213 8.5743C25.8652 7.73291 28.002 7.13765 30.1865 6.80105V14.9394L23.8213 8.5743ZM20.7768 8.57915L32.9741 20.7767L29.9248 23.8256L26.8755 20.7762L25.3507 19.2515L15.4403 9.34152L16.2027 8.57915C16.8098 7.97355 17.6322 7.63345 18.4897 7.63345C19.3472 7.63345 20.1697 7.97355 20.7768 8.57915V8.57915ZM8.57914 16.2027L13.9159 10.866L28.4001 25.3509L25.3509 28.4001L23.8262 26.8755L20.0145 23.0636L12.3908 15.4402L10.8661 16.9651L23.8256 29.9248L20.7764 32.9743L8.57873 20.7769C7.97314 20.1698 7.63309 19.3473 7.63317 18.4897C7.63324 17.6322 7.97344 16.8097 8.57914 16.2027V16.2027ZM6.46776 32.3428H11.8584V30.1865H6.80104C7.13767 28.002 7.73289 25.8653 8.57415 23.8214L19.2519 34.499L17.0957 36.6553H6.46776C5.89589 36.6553 5.34744 36.4281 4.94307 36.0237C4.53869 35.6194 4.31151 35.0709 4.31151 34.499C4.31151 33.9272 4.53869 33.3787 4.94307 32.9743C5.34744 32.57 5.89589 32.3428 6.46776 32.3428V32.3428ZM8.57429 45.1766C7.73294 43.1327 7.13768 40.996 6.80104 38.8115H14.9394L8.57429 45.1766ZM8.57914 48.2213L48.2211 8.57915C48.8281 7.97341 49.6507 7.63321 50.5082 7.63321C51.3658 7.63321 52.1883 7.97341 52.7953 8.57915L58.1321 13.9159L13.9155 58.1325L10.8664 55.0825L16.9651 48.9836L15.4402 47.4589L9.34151 53.5577L8.57914 52.7953C7.9735 52.1883 7.63338 51.3658 7.63338 50.5083C7.63338 49.6508 7.9735 48.8283 8.57914 48.2213V48.2213ZM34.499 64.6865C33.9273 64.6858 33.3793 64.4585 32.9751 64.0542C32.5708 63.65 32.3434 63.1019 32.3428 62.5303V56.0615H30.1865V62.197C28.002 61.8604 25.8653 61.2652 23.8214 60.4239L34.499 49.7461L36.6553 51.9024V62.5303C36.6546 63.1019 36.4272 63.65 36.023 64.0542C35.6187 64.4585 35.0707 64.6858 34.499 64.6865V64.6865ZM45.1768 60.4238C43.1328 61.2651 40.9961 61.8604 38.8115 62.197V54.0586L45.1768 60.4238ZM48.2213 60.4189L36.0239 48.2214L39.0732 45.1725L45.9343 52.0335L47.459 50.5088L40.598 43.6476L43.6472 40.5984L58.1316 55.0825L55.0824 58.1317L48.9836 52.033L47.4589 53.5578L53.5577 59.6565L52.7953 60.4189C52.1883 61.0245 51.3658 61.3647 50.5083 61.3647C49.6508 61.3647 48.8283 61.0245 48.2213 60.4189V60.4189ZM60.4189 52.7953L59.6565 53.5577L45.1725 39.0732L48.2218 36.0239L60.4193 48.2211C61.0249 48.8283 61.3649 49.6508 61.3649 50.5083C61.3648 51.3658 61.0246 52.1883 60.4189 52.7953V52.7953ZM54.0586 38.8115H62.197C61.8604 40.996 61.2651 43.1327 60.4239 45.1766L54.0586 38.8115ZM62.5303 36.6553H51.9024L49.7461 34.499L60.4239 23.8214C61.2651 25.8653 61.8604 28.002 62.197 30.1865H57.1396V32.3428H62.5303C63.1021 32.3428 63.6506 32.57 64.055 32.9743C64.4593 33.3787 64.6865 33.9272 64.6865 34.499C64.6865 35.0709 64.4593 35.6194 64.055 36.0237C63.6506 36.4281 63.1021 36.6553 62.5303 36.6553ZM60.4189 20.7769L20.7769 60.4189C20.1699 61.0246 19.3473 61.3647 18.4898 61.3647C17.6323 61.3647 16.8098 61.0246 16.2027 60.4189L15.4403 59.6565L59.6569 15.4399L60.4193 16.2023C61.025 16.8094 61.3651 17.6321 61.3651 18.4897C61.365 19.3473 61.0247 20.1699 60.4189 20.7769V20.7769ZM64.6865 2.15528C65.113 2.15528 65.5299 2.28174 65.8845 2.51867C66.2391 2.7556 66.5154 3.09236 66.6786 3.48637C66.8418 3.88037 66.8845 4.31392 66.8013 4.73219C66.7181 5.15046 66.5128 5.53467 66.2112 5.83623C65.9097 6.13778 65.5255 6.34315 65.1072 6.42634C64.6889 6.50954 64.2554 6.46684 63.8614 6.30364C63.4674 6.14044 63.1306 5.86407 62.8937 5.50947C62.6567 5.15488 62.5303 4.73799 62.5303 4.31153C62.5309 3.73986 62.7583 3.1918 63.1626 2.78758C63.5668 2.38335 64.1148 2.15595 64.6865 2.15528V2.15528Z" fill="#FF6D6D"/>
</g>
<defs>
<clipPath id="clip0">
<rect width="69" height="69" fill="white"/>
</clipPath>
</defs>
</svg>
